<svg xmlns="http://www.w3.org/2000/svg" width="29" height="21.399" viewBox="0 0 29 21.399">
  <g id="usa" transform="translate(0 -6)">
    <path id="Path_27" data-name="Path 27" d="M28.5,7.189A1.188,1.188,0,0,0,27.313,6H11.875V17.888H0V26.21A1.188,1.188,0,0,0,1.188,27.4H27.313A1.188,1.188,0,0,0,28.5,26.21Z" transform="translate(0 0)" fill="#b41f30"/>
    <rect id="Rectangle_6" data-name="Rectangle 6" width="18" height="2" transform="translate(11 8.875)" fill="#e6e6e6"/>
    <rect id="Rectangle_7" data-name="Rectangle 7" width="18" height="2" transform="translate(11 13.318)" fill="#e6e6e6"/>
    <path id="Path_28" data-name="Path 28" d="M0,26v2.542H28.5V26H0Z" transform="translate(0 -8.214)" fill="#e6e6e6"/>
    <rect id="Rectangle_8" data-name="Rectangle 8" width="29" height="2" transform="translate(0 22.399)" fill="#e6e6e6"/>
    <path id="Path_29" data-name="Path 29" d="M12.708,18.708H0V7.271A1.27,1.27,0,0,1,1.271,6H12.708Z" fill="#00256a"/>
    <path id="Path_30" data-name="Path 30" d="M9.221,13.922l-.4.869H7.863l.7.724L8.3,16.563l.917-.52.917.52L9.88,15.516l.7-.724H9.622Z" transform="translate(-3.22 -3.255)" fill="#fff"/>
    <path id="Path_31" data-name="Path 31" d="M4.328,9.029l-.4.869H2.971l.7.724L3.411,11.67l.917-.52.918.52-.259-1.047.7-.724H4.729Z" transform="translate(-1.083 -1.104)" fill="#fff"/>
    <path id="Path_32" data-name="Path 32" d="M14.114,9.029l.4.869h.956l-.7.724.258,1.047-.917-.52-.918.52.259-1.047-.7-.724h.957Z" transform="translate(-5.224 -1.104)" fill="#fff"/>
    <path id="Path_33" data-name="Path 33" d="M4.328,21.456l-.4-.869H2.971l.7-.724-.258-1.047.917.52.918-.52-.259,1.047.7.724H4.729Z" transform="translate(-1.083 -5.266)" fill="#fff"/>
    <path id="Path_34" data-name="Path 34" d="M14.114,21.456l.4-.869h.956l-.7-.724.258-1.047-.917.52-.918-.52.259,1.047-.7.724h.957Z" transform="translate(-5.224 -5.266)" fill="#fff"/>
  </g>
</svg>
